<svg id="Capa_1" enable-background="new 0 0 512 512" height="512" viewBox="0 0 512 512" width="512" xmlns="http://www.w3.org/2000/svg"><g><path d="m324.784 42.775c16.895 6.265 32.797 14.825 47.339 25.314 14.797 10.687 28.177 23.357 39.714 37.616 2.58 3.232 2.069 7.938-1.162 10.517-3.203 2.608-7.909 2.069-10.517-1.134-10.715-13.267-23.074-25.003-36.765-34.867-7.881-5.698-16.215-10.771-24.945-15.194 1.219 2.325 2.409 4.649 3.572 7.058 19.956 41.245 32.57 97.428 33.534 159.536h67.975c-.538-14.797-2.664-29.112-6.207-42.775-4.28-16.498-10.659-32.173-18.822-46.687-2.013-3.6-.737-8.164 2.892-10.205 3.6-2.013 8.164-.737 10.176 2.891 8.73 15.534 15.59 32.4 20.211 50.259 3.912 14.996 6.236 30.586 6.775 46.63 5.159.539 9.808 2.864 13.295 6.35 3.997 3.997 6.463 9.496 6.463 15.591 0 6.066-2.466 11.594-6.463 15.59-4.28 4.252-9.808 6.463-15.817 6.463v160.839c0 20.665-8.164 39.487-21.317 53.179-13.212 13.722-31.44 22.254-51.509 22.254h-254.384c-20.069 0-38.325-8.532-51.534-22.252-13.125-13.692-21.289-32.514-21.289-53.179v-160.84c-6.038 0-11.565-2.211-15.846-6.463-3.968-3.997-6.463-9.524-6.463-15.59 0-6.095 2.495-11.594 6.463-15.591 3.487-3.486 8.136-5.812 13.323-6.35 1.389-41.755 14.741-80.391 36.568-112.423 23.783-34.838 57.6-61.825 97.172-76.537 2.069-2.863 4.167-5.613 6.322-8.22 18.057-21.969 39.402-34.555 62.476-34.555 25.796 0 49.465 15.789 68.77 42.775zm-70.839 166.623c-2.239-.624-54.482-15.449-54.482-58.252v-54.086c0-4.365 3.713-7.795 8.079-7.483 7.54-.142 14.825-1.843 21.855-5.046 7.371-3.373 14.514-8.447 21.43-15.108 2.892-2.778 7.483-2.75 10.375.028 6.917 6.633 14.032 11.707 21.43 15.08 7.2 3.288 14.684 5.018 22.479 5.074 4.082.028 7.427 3.345 7.427 7.455v54.086c0 43.682-54.369 58.224-54.539 58.281-1.39.368-2.778.339-4.054-.029zm-39.459-58.253c0 28.063 32.996 40.507 41.528 43.257 8.504-2.751 41.528-15.194 41.528-43.257v-47.056c-7.285-.85-14.315-2.863-21.147-5.981-7.059-3.231-13.862-7.654-20.381-13.181-6.548 5.527-13.351 9.95-20.41 13.181-6.832 3.118-13.862 5.131-21.118 5.981zm226.519 124.584h-13.323v64.29c0 16.356-6.689 31.267-17.461 42.038-10.8 10.771-25.682 17.49-42.038 17.49h-9.298c-4.138 0-7.512-3.373-7.512-7.512s3.374-7.512 7.512-7.512h9.298c12.217 0 23.357-4.989 31.436-13.068 8.051-8.079 13.068-19.219 13.068-31.437v-64.29h-313.374v64.29c0 12.217 5.018 23.358 13.097 31.437s19.19 13.068 31.436 13.068h69.053c5.074 0 7.965-1.672 9.666-4.252 2.296-3.458 3.458-8.901 4.535-14.542 1.786-9.241 4.933-20.07 9.894-27.95 4.621-7.342 10.829-12.331 19.021-12.331s14.371 4.989 18.993 12.331c4.961 7.88 8.135 18.709 9.893 27.95 1.077 5.641 2.239 11.083 4.535 14.542 1.729 2.58 4.592 4.252 9.694 4.252h25.768c4.139 0 7.512 3.373 7.512 7.512s-3.373 7.512-7.512 7.512h-25.768c-11.055 0-17.745-4.365-22.167-11.027-3.828-5.782-5.387-12.784-6.775-19.984-1.502-7.795-4.025-16.781-7.824-22.79-1.984-3.146-4.167-5.301-6.35-5.301-2.211 0-4.365 2.154-6.35 5.301-3.798 6.009-6.35 14.995-7.852 22.79-1.36 7.2-2.919 14.202-6.774 19.984-4.423 6.662-11.113 11.027-22.139 11.027h-69.053c-16.384 0-31.266-6.718-42.038-17.49-10.8-10.772-17.49-25.682-17.49-42.038v-64.29h-13.323v160.839c0 16.696 6.548 31.834 17.093 42.804 10.46 10.885 24.889 17.632 40.734 17.632h254.384c15.846 0 30.274-6.747 40.734-17.632 10.545-10.97 17.065-26.107 17.065-42.804zm-275.729-147.318c-1.049 3.997-5.159 6.35-9.156 5.301-3.997-1.077-6.378-5.188-5.301-9.184 5.982-22.196 13.691-42.265 22.762-59.472-28.545 14.4-53.008 36.085-71.15 62.703-20.183 29.566-32.542 65.254-33.959 103.862h68.003c.17-11.395.737-22.621 1.672-33.591 1.163-13.664 2.892-26.929 5.159-39.685.709-4.082 4.592-6.804 8.675-6.095 4.082.709 6.803 4.592 6.094 8.674-2.183 12.303-3.855 25.144-4.989 38.354-.907 10.517-1.446 21.316-1.616 32.343h209.085c-.935-59.868-13.011-113.727-32.031-153.044-19.021-39.26-44.674-63.582-72.511-63.582-18.312 0-35.745 10.602-50.939 29.056-16.554 20.07-30.33 49.267-39.798 84.36zm290.98 118.206c-133.485 0-266.999 0-400.512 0-1.928 0-3.685.794-4.96 2.069-1.304 1.275-2.098 3.062-2.098 4.989s.793 3.685 2.098 4.96c1.275 1.304 3.033 2.098 4.96 2.098h400.512c1.928 0 3.713-.793 4.989-2.098 1.275-1.276 2.069-3.033 2.069-4.96 0-1.928-.794-3.714-2.069-4.989-1.276-1.275-3.061-2.069-4.989-2.069z"/></g></svg>