<?xml version="1.0" ?><svg height="32" id="svg2" overflow="visible" style="fill-rule:evenodd;stroke-width:0.50099999;stroke-linejoin:bevel;overflow:visible" version="1.1" viewBox="0 0 25.600005 25.600001" width="32" xmlns="http://www.w3.org/2000/svg" xmlns:cc="http://creativecommons.org/ns#" xmlns:dc="http://purl.org/dc/elements/1.1/" xmlns:inkscape="http://www.inkscape.org/namespaces/inkscape" xmlns:rdf="http://www.w3.org/1999/02/22-rdf-syntax-ns#" xmlns:sodipodi="http://sodipodi.sourceforge.net/DTD/sodipodi-0.dtd" xmlns:svg="http://www.w3.org/2000/svg" xmlns:xlink="http://www.w3.org/1999/xlink"><script id="script3301" xlink:href=""/><script id="script3299" xlink:href=""/><defs id="defs4"><marker id="DefaultArrow2" markerHeight="1" markerUnits="strokeWidth" markerWidth="1" orient="auto" overflow="visible" style="overflow:visible" viewBox="0 0 1 1"><g id="g7" transform="scale(0.00925926,0.00925926)"><path d="M -9,54 -9,-54 117,0 z" id="path9"/></g></marker><marker id="DefaultArrow3" markerHeight="1" markerUnits="strokeWidth" markerWidth="1" orient="auto" overflow="visible" style="overflow:visible" viewBox="0 0 1 1"><g id="g12" transform="scale(0.00925926,0.00925926)"><path d="M -27,54 -9,0 -27,-54 135,0 z" id="path14"/></g></marker><marker id="DefaultArrow4" markerHeight="1" markerUnits="strokeWidth" markerWidth="1" orient="auto" overflow="visible" style="overflow:visible" viewBox="0 0 1 1"><g id="g17" transform="scale(0.00925926,0.00925926)"><path d="M -9,0 -9,-45 C -9,-51.708 2.808,-56.58 9,-54 L 117,-9 C 120.916,-7.369 126,-4.242 126,0 126,4.242 120.916,7.369 117,9 L 9,54 C 2.808,56.58 -9,51.708 -9,45 z" id="path19"/></g></marker><marker id="DefaultArrow5" markerHeight="1" markerUnits="strokeWidth" markerWidth="1" orient="auto" overflow="visible" style="overflow:visible" viewBox="0 0 1 1"><g id="g22" transform="scale(0.00925926,0.00925926)"><path d="M -54,0 C -54,29.807 -29.807,54 0,54 29.807,54 54,29.807 54,0 54,-29.807 29.807,-54 0,-54 -29.807,-54 -54,-29.807 -54,0 z" id="path24"/></g></marker><marker id="DefaultArrow6" markerHeight="1" markerUnits="strokeWidth" markerWidth="1" orient="auto" overflow="visible" style="overflow:visible" viewBox="0 0 1 1"><g id="g27" transform="scale(0.00925926,0.00925926)"><path d="M -63,0 0,63 63,0 0,-63 z" id="path29"/></g></marker><marker id="DefaultArrow7" markerHeight="1" markerUnits="strokeWidth" markerWidth="1" orient="auto" overflow="visible" style="overflow:visible" viewBox="0 0 1 1"><g id="g32" transform="scale(0.00925926,0.00925926)"><path d="M 18,-54 108,-54 63,0 108,54 18,54 -36,0 z" id="path34"/></g></marker><marker id="DefaultArrow8" markerHeight="1" markerUnits="strokeWidth" markerWidth="1" orient="auto" overflow="visible" style="overflow:visible" viewBox="0 0 1 1"><g id="g37" transform="scale(0.00925926,0.00925926)"><path d="M -36,0 18,-54 54,-54 18,-18 27,-18 63,-54 99,-54 63,-18 72,-18 108,-54 144,-54 90,0 144,54 108,54 72,18 63,18 99,54 63,54 27,18 18,18 54,54 18,54 z" id="path39"/></g></marker><marker id="DefaultArrow9" markerHeight="1" markerUnits="strokeWidth" markerWidth="1" orient="auto" overflow="visible" style="overflow:visible" viewBox="0 0 1 1"><g id="g42" transform="scale(0.00925926,0.00925926)"><path d="M 0,45 -45,0 0,-45 45,0 z M 0,63 -63,0 0,-63 63,0 z" id="path44"/></g></marker><filter color-interpolation-filters="sRGB" id="StainedFilter"><feBlend id="feBlend47" in="SourceGraphic" in2="BackgroundImage" mode="multiply" result="blend"/><feComposite id="feComposite49" in="blend" in2="SourceAlpha" operator="in" result="comp"/></filter><filter color-interpolation-filters="sRGB" id="BleachFilter"><feBlend id="feBlend52" in="SourceGraphic" in2="BackgroundImage" mode="screen" result="blend"/><feComposite id="feComposite54" in="blend" in2="SourceAlpha" operator="in" result="comp"/></filter><filter color-interpolation-filters="sRGB" id="InvertTransparencyBitmapFilter"><feComponentTransfer id="feComponentTransfer57"><feFuncR amplitude="1.055" exponent=".416666666" id="feFuncR59" offset="-0.055" type="gamma"/><feFuncG amplitude="1.055" exponent=".416666666" id="feFuncG61" offset="-0.055" type="gamma"/><feFuncB amplitude="1.055" exponent=".416666666" id="feFuncB63" offset="-0.055" type="gamma"/></feComponentTransfer><feComponentTransfer id="feComponentTransfer65"><feFuncR id="feFuncR67" intercept="1" slope="-1" type="linear"/><feFuncG id="feFuncG69" intercept="1" slope="-1" type="linear"/><feFuncB id="feFuncB71" intercept="1" slope="-1" type="linear"/><feFuncA id="feFuncA73" intercept="0" slope="1" type="linear"/></feComponentTransfer><feComponentTransfer id="feComponentTransfer75"><feFuncR amplitude="1" exponent="2.4" id="feFuncR77" offset="0" type="gamma"/><feFuncG amplitude="1" exponent="2.4" id="feFuncG79" offset="0" type="gamma"/><feFuncB amplitude="1" exponent="2.4" id="feFuncB81" offset="0" type="gamma"/></feComponentTransfer></filter><radialGradient cx="0" cy="0" gradientTransform="matrix(0,-1,0.886054,0,172.174,122.358)" gradientUnits="userSpaceOnUse" id="RadialGradient" r="237.42799"><stop id="stop84" offset="0" stop-color="#473600"/><stop id="stop86" offset="0.792135000228882" stop-color="#3d2f00"/><stop id="stop88" offset="0.990000009536743" stop-color="#3a2c00"/><stop id="stop90" offset="1" stop-color="#3a2c00"/></radialGradient><radialGradient cx="0" cy="0" gradientTransform="matrix(0,-1,0.886054,0,170.916,119.88)" gradientUnits="userSpaceOnUse" id="RadialGradient_1" r="237.42799"><stop id="stop93" offset="0" stop-color="#553e00"/><stop id="stop95" offset="0.792135000228882" stop-color="#403200"/><stop id="stop97" offset="0.990000009536743" stop-color="#3b2b00"/><stop id="stop99" offset="1" stop-color="#3b2b00"/></radialGradient><radialGradient cx="0" cy="0" gradientTransform="matrix(0,-1,0.886054,0,169.66,117.403)" gradientUnits="userSpaceOnUse" id="RadialGradient_2" r="237.42799"><stop id="stop102" offset="0" stop-color="#634700"/><stop id="stop104" offset="0.792135000228882" stop-color="#443400"/><stop id="stop106" offset="0.990000009536743" stop-color="#3c2a00"/><stop id="stop108" offset="1" stop-color="#3c2a00"/></radialGradient><radialGradient cx="0" cy="0" gradientTransform="matrix(0,-1,0.886054,0,168.403,114.925)" gradientUnits="userSpaceOnUse" id="RadialGradient_3" r="237.42799"><stop id="stop111" offset="0" stop-color="#724f00"/><stop id="stop113" offset="0.792135000228882" stop-color="#473600"/><stop id="stop115" offset="0.990000009536743" stop-color="#3c2900"/><stop id="stop117" offset="1" stop-color="#3c2900"/></radialGradient><radialGradient cx="0" cy="0" gradientTransform="matrix(0,-1,0.886054,0,167.146,112.448)" gradientUnits="userSpaceOnUse" id="RadialGradient_4" r="237.42799"><stop id="stop120" offset="0" stop-color="#805800"/><stop id="stop122" offset="0.792135000228882" stop-color="#4b3800"/><stop id="stop124" offset="0.990000009536743" stop-color="#3d2800"/><stop id="stop126" offset="1" stop-color="#3d2800"/></radialGradient><radialGradient cx="0" cy="0" gradientTransform="matrix(0,-1,0.886054,0,165.889,109.97)" gradientUnits="userSpaceOnUse" id="RadialGradient_5" r="237.42799"><stop id="stop129" offset="0" stop-color="#8e6000"/><stop id="stop131" offset="0.792135000228882" stop-color="#4e3b00"/><stop id="stop133" offset="0.990000009536743" stop-color="#3e2700"/><stop id="stop135" offset="1" stop-color="#3e2700"/></radialGradient><radialGradient cx="0" cy="0" gradientTransform="matrix(0,-1,0.886054,0,164.632,107.493)" gradientUnits="userSpaceOnUse" id="RadialGradient_6" r="237.42799"><stop id="stop138" offset="0" stop-color="#9c6900"/><stop id="stop140" offset="0.792135000228882" stop-color="#523d00"/><stop id="stop142" offset="0.990000009536743" stop-color="#3f2600"/><stop id="stop144" offset="1" stop-color="#3f2600"/></radialGradient><linearGradient gradientTransform="translate(218.601,165.399)" gradientUnits="userSpaceOnUse" id="LinearGradient" x1="0" x2="42.75" y1="0" y2="36.75"><stop id="stop147" offset="0" stop-color="#5c5c5c"/><stop id="stop149" offset="1" stop-color="#000000"/></linearGradient><linearGradient gradientTransform="translate(181.122,157.792)" gradientUnits="userSpaceOnUse" id="LinearGradient_1" x1="0" x2="-9.6719999" y1="0" y2="-141.858"><stop id="stop152" offset="0" stop-color="#ffffff"/><stop id="stop154" offset="1" stop-color="#cfd1d2"/></linearGradient><linearGradient gradientTransform="translate(259.851,172.899)" gradientUnits="userSpaceOnUse" id="LinearGradient_2" x1="0" x2="69.75" y1="0" y2="-189.75"><stop id="stop157" offset="0" stop-color="#b5b5b5"/><stop id="stop159" offset="1" stop-color="#000000"/></linearGradient><linearGradient gradientTransform="translate(204.11,87.059)" gradientUnits="userSpaceOnUse" id="LinearGradient_3" x1="0" x2="-51.527" y1="0" y2="-64.410004"><stop id="stop162" offset="0" stop-color="#df9000"/><stop id="stop164" offset="0.730337023735046" stop-color="#7f5200"/><stop id="stop166" offset="0.990000009536743" stop-color="#3f2600"/><stop id="stop168" offset="1" stop-color="#3f2600"/></linearGradient><linearGradient gradientTransform="translate(199.945,96.333)" gradientUnits="userSpaceOnUse" id="LinearGradient_4" x1="0" x2="19.041" y1="0" y2="85.190002"><stop id="stop171" offset="0" stop-color="#ba7d00"/><stop id="stop173" offset="0.792135000228882" stop-color="#7f5200"/><stop id="stop175" offset="0.990000009536743" stop-color="#3f2600"/><stop id="stop177" offset="1" stop-color="#3f2600"/></linearGradient><linearGradient gradientTransform="translate(129.134,111.014)" gradientUnits="userSpaceOnUse" id="LinearGradient_5" x1="0" x2="-1.007" y1="0" y2="-63.535999"><stop id="stop180" offset="0" stop-color="#df9000"/><stop id="stop182" offset="0.792135000228882" stop-color="#7f5200"/><stop id="stop184" offset="0.990000009536743" stop-color="#3f2600"/><stop id="stop186" offset="1" stop-color="#3f2600"/></linearGradient><linearGradient gradientTransform="translate(129.286,104.867)" gradientUnits="userSpaceOnUse" id="LinearGradient_6" x1="0" x2="15.098" y1="0" y2="58.375"><stop id="stop189" offset="0" stop-color="#df9000"/><stop id="stop191" offset="0.792135000228882" stop-color="#7f5200"/><stop id="stop193" offset="0.990000009536743" stop-color="#3f2600"/><stop id="stop195" offset="1" stop-color="#3f2600"/></linearGradient><radialGradient cx="0" cy="0" gradientTransform="matrix(0.69735527,-0.71672563,1.2319152,1.1986212,183.351,196.899)" gradientUnits="userSpaceOnUse" id="RadialGradient_7" r="38.716999"><stop id="stop198" offset="0" stop-color="#6b4c29"/><stop id="stop200" offset="1" stop-color="#a57348"/></radialGradient><radialGradient cx="0" cy="0" gradientTransform="matrix(0,-1,0.973942,0,134.346,314.993)" gradientUnits="userSpaceOnUse" id="RadialGradient_8" r="120.999"><stop id="stop203" offset="0" stop-color="#e0bf9e"/><stop id="stop205" offset="1.68539006263018E-02" stop-color="#e0bf9e"/><stop id="stop207" offset="0.202246993780136" stop-color="#e6b891"/><stop id="stop209" offset="1" stop-color="#7b5d39"/></radialGradient><radialGradient cx="0" cy="0" gradientTransform="matrix(-0.01429027,-0.99989789,1.2061368,-0.01723778,146.601,370.899)" gradientUnits="userSpaceOnUse" id="RadialGradient_9" r="87.054001"><stop id="stop212" offset="0" stop-color="#9a9a9a"/><stop id="stop214" offset="1" stop-color="#313131"/></radialGradient><linearGradient gradientTransform="translate(213.351,257.649)" gradientUnits="userSpaceOnUse" id="LinearGradient_7" x1="0" x2="-54" y1="0" y2="-87"><stop id="stop217" offset="0" stop-color="#484848"/><stop id="stop219" offset="1" stop-color="#000000"/></linearGradient><linearGradient gradientTransform="translate(133.101,343.149)" gradientUnits="userSpaceOnUse" id="LinearGradient_8" x1="0" x2="10.5" y1="0" y2="-85.5"><stop id="stop222" offset="0" stop-color="#8d8d8d"/><stop id="stop224" offset="1" stop-color="#000000"/></linearGradient><linearGradient gradientTransform="translate(239.24,380.259)" gradientUnits="userSpaceOnUse" id="LinearGradient_9" x1="0" x2="3.5999999" y1="0" y2="-129"><stop id="stop227" offset="0" stop-color="#ffffff"/><stop id="stop229" offset="1" stop-color="#000000"/></linearGradient><linearGradient gradientTransform="translate(115.007,352.336)" gradientUnits="userSpaceOnUse" id="LinearGradient_10" x1="0" x2="108" y1="0" y2="-33.75"><stop id="stop232" offset="0" stop-color="#ffffff"/><stop id="stop234" offset="1" stop-color="#000000"/></linearGradient><linearGradient gradientTransform="translate(226.61,87.059)" gradientUnits="userSpaceOnUse" id="LinearGradient_11" x1="0" x2="-51.527" y1="0" y2="-64.410004"><stop id="stop237" offset="0" stop-color="#df9000"/><stop id="stop239" offset="0.730337023735046" stop-color="#7f5200"/><stop id="stop241" offset="0.990000009536743" stop-color="#3f2600"/><stop id="stop243" offset="1" stop-color="#3f2600"/></linearGradient></defs><g id="g3536" transform="matrix(0.64050449,0,0,0.64031522,0,25.600003)"><path d="M 10.607865,-6.6059071 C 9.4904584,-7.0774006 8.1765487,-8.0487106 7.6986119,-9.1749636 7.1873695,-10.387851 7.7086036,-11.582413 8.2947839,-12.508739 8.909274,-13.455058 9.7302595,-14.356394 10.627848,-14.986163 11.500457,-15.595939 12.542926,-16.020783 13.490473,-15.855843 14.434689,-15.680907 15.102468,-14.937847 15.437191,-14.564651 15.630364,-14.344732 15.750264,-14.201451 15.835194,-14.101488 L 15.998392,-13.926552 16.186569,-14.016519 C 16.423039,-14.149803 16.831034,-14.426368 17.696982,-15.024482 18.801066,-15.794199 20.522971,-17.008753 21.930136,-18.554852 23.35229,-20.100951 24.466365,-21.98026 24.915992,-23.048202 25.124153,-23.541354 25.142471,-23.754609 25.119157,-23.881229 25.077525,-23.921214 25.032562,-23.954535 24.952628,-23.999519 24.547964,-24.2311 23.602082,-24.564311 23.06253,-25.019144 22.394751,-25.585603 22.284842,-26.33866 22.313152,-26.941772 22.346458,-27.548216 22.509656,-28.121338 22.794419,-28.774432 23.075852,-29.420861 23.487178,-30.178916 24.011742,-30.90365 24.531311,-31.63005 25.16412,-32.323128 25.622073,-32.754637 26.111667,-33.20947 26.448054,-33.394402 26.894351,-33.559341 27.36063,-33.727613 28.0001,-33.882556 28.959304,-33.469374 29.821921,-33.106174 31.009269,-32.251488 31.675383,-31.325162 32.384795,-30.342189 32.486377,-29.3159 32.47139,-28.449551 32.451406,-27.521559 32.281547,-26.688531 31.307355,-24.614293 30.336494,-22.545053 28.518003,-19.16796 25.945138,-16.117414 23.373938,-13.066868 20.066683,-10.377855 17.996734,-8.7851068 15.943437,-7.210685 14.99256,-6.6242337 13.946761,-6.3493347 12.904292,-6.0711036 11.796878,-6.0977604 10.607865,-6.6059071 z M 13.625361,-7.5572244 C 14.401384,-7.7621491 15.17241,-8.1919913 17.235698,-9.7764094 19.288995,-11.355829 22.509656,-13.978199 24.99093,-16.922118 27.467209,-19.859373 29.232411,-23.13317 30.176627,-25.145765 31.114182,-27.143364 31.207438,-27.796458 31.224091,-28.474542 31.235748,-29.220934 31.144158,-29.927342 30.661225,-30.593764 30.148317,-31.310167 29.154142,-32.031569 28.471375,-32.31813 27.878534,-32.574703 27.582113,-32.479738 27.322329,-32.384772 27.0359,-32.279811 26.839396,-32.181514 26.476364,-31.843305 26.07503,-31.46511 25.495511,-30.832009 25.025901,-30.172252 24.554625,-29.524156 24.186597,-28.846072 23.93847,-28.276281 23.693673,-27.709823 23.583764,-27.286645 23.56045,-26.876795 23.542132,-26.466946 23.622066,-26.183717 23.870193,-25.973794 24.239886,-25.660575 25.014244,-25.404003 25.570449,-25.087453 25.77861,-24.969163 26.04339,-24.792561 26.229902,-24.469346 L 26.286522,-24.351056 C 26.504674,-23.826249 26.346472,-23.223137 26.066704,-22.56338 25.560457,-21.362154 24.369779,-19.359556 22.851039,-17.710162 21.340626,-16.050772 19.512143,-14.766243 18.408059,-13.996526 17.347272,-13.266794 16.824373,-12.900262 16.434696,-12.755315 16.331449,-12.716996 16.22154,-12.685341 16.1083,-12.670346 15.796892,-12.628695 15.537108,-12.713664 15.305633,-12.875271 L 15.199055,-12.961906 C 15.010878,-13.131844 14.801052,-13.396746 14.502966,-13.733289 14.141599,-14.139807 13.733604,-14.53966 13.26899,-14.624629 12.811036,-14.706265 12.114947,-14.501341 11.345586,-13.961539 10.601203,-13.44173 9.8867962,-12.663682 9.3455787,-11.833987 8.7993652,-10.970971 8.5945352,-10.266229 8.8493238,-9.6631176 9.1440792,-8.9633746 10.11494,-8.1686665 11.095793,-7.757151 12.018361,-7.362296 12.839346,-7.3456355 13.625361,-7.5572244 z" id="path3538" style="fill:#000000;fill-opacity:1;fill-rule:evenodd;stroke:none"/><path d="M 0,-3.651992 0,-36.328324 C 0,-38.342584 1.6353097,-39.980316 3.6503044,-39.980316 L 36.318198,-39.980316 C 38.331527,-39.980316 39.968502,-38.342584 39.968502,-36.328324 L 39.968502,-3.651992 C 39.968502,-1.6360658 38.331527,0 36.318198,0 L 3.6503044,0 C 1.6353097,0 0,-1.6360658 0,-3.651992 z M 38.719538,-3.651992 38.719538,-36.328324 C 38.719538,-37.651172 37.640434,-38.730775 36.318198,-38.730775 L 3.6503044,-38.730775 C 2.326403,-38.730775 1.2489636,-37.651172 1.2489636,-36.328324 L 1.2489636,-3.651992 C 1.2489636,-2.3274785 2.326403,-1.2495411 3.6503044,-1.2495411 L 36.318198,-1.2495411 C 37.640434,-1.2495411 38.719538,-2.3274785 38.719538,-3.651992 z" id="path3540" style="fill:#000000;fill-opacity:1;fill-rule:evenodd;stroke:none"/></g></svg>