<?xml version="1.0" ?><!DOCTYPE svg  PUBLIC '-//W3C//DTD SVG 1.1//EN'  'http://www.w3.org/Graphics/SVG/1.1/DTD/svg11.dtd'><svg enable-background="new 0 0 64 64" height="64px" id="Icons" version="1.1" viewBox="0 0 64 64" width="64px" xml:space="preserve" xmlns="http://www.w3.org/2000/svg" xmlns:xlink="http://www.w3.org/1999/xlink"><g id="content_x2C__management"><g><rect fill="#37474F" height="1" width="14" x="28" y="15"/><rect fill="#37474F" height="1" width="20" x="28" y="19"/><path d="M43,5H10v54h44V16L43,5z M51.586,15H44V7.414L51.586,15z M53,58H11V6h31.586H43v10h10V58z" fill="#37474F"/><rect fill="#37474F" height="1" width="32" x="16" y="31"/><rect fill="#37474F" height="1" width="32" x="16" y="27"/><rect fill="#37474F" height="1" width="32" x="16" y="23"/><path d="M26,11H16v10h10V11z M25,20h-8v-8h8V20z" fill="#37474F"/><path d="M32,50c-2.207,0-4,1.793-4,4c0,1.201,0.542,2.267,1.382,3H32c-1.654,0-3-1.346-3-3s1.346-3,3-3    c1.656,0,3,1.346,3,3s-1.344,3-3,3h2.619C35.459,56.267,36,55.201,36,54C36,51.793,34.209,50,32,50z" fill="#37474F"/><path d="M32,44.963c-4.967,0-9,4.05-9,9.037c0,1.053,0.189,2.06,0.52,3h1.069C24.212,56.072,24,55.062,24,54    c0-4.413,3.587-8,8-8c4.418,0,8,3.587,8,8c0,1.062-0.212,2.072-0.588,3h1.068c0.33-0.94,0.52-1.947,0.52-3    C41,49.013,36.967,44.963,32,44.963z" fill="#37474F"/><path d="M45.436,50.092c-0.289-0.993-0.679-1.943-1.169-2.832c0.126-0.156,0.243-0.308,0.335-0.438l2.373-3.322    c0.32-0.447,0.264-1.132-0.125-1.521l-2.828-2.828c-0.221-0.219-0.533-0.332-0.846-0.332c-0.241,0-0.48,0.067-0.676,0.207    l-3.322,2.373c-0.13,0.092-0.281,0.209-0.438,0.335c-0.889-0.49-1.839-0.88-2.832-1.169c-0.022-0.201-0.047-0.393-0.072-0.551    l-0.672-4.027C35.074,35.443,34.55,35,34,35h-4c-0.55,0-1.074,0.443-1.164,0.986l-0.672,4.027c-0.025,0.158-0.05,0.35-0.072,0.552    c-0.993,0.289-1.942,0.679-2.831,1.169c-0.157-0.126-0.309-0.244-0.438-0.336L21.5,39.025c-0.195-0.14-0.435-0.207-0.676-0.207    c-0.312,0-0.625,0.113-0.845,0.332l-2.828,2.828c-0.389,0.39-0.446,1.074-0.126,1.521l2.373,3.322    c0.093,0.13,0.21,0.281,0.336,0.438c-0.49,0.889-0.88,1.838-1.169,2.831c-0.202,0.022-0.393,0.047-0.552,0.072l-4.027,0.672    C13.444,50.926,13,51.45,13,52v4c0,0.401,0.239,0.785,0.578,1h5.765l-0.003-0.012l-0.663-0.074    c-0.182-0.02-0.355-0.041-0.498-0.064l-4.028-0.672C14.09,56.168,14,56.061,14,56v-3.999c0-0.062,0.09-0.169,0.151-0.179    l4.027-0.672c0.143-0.023,0.316-0.045,0.499-0.064l0.663-0.074l0.186-0.641c0.271-0.93,0.636-1.813,1.084-2.627l0.323-0.586    l-0.418-0.523c-0.113-0.141-0.219-0.277-0.303-0.394l-2.374-3.323c-0.036-0.049-0.023-0.188,0.02-0.232l2.828-2.827    c0.017-0.017,0.071-0.04,0.139-0.04c0.048,0,0.083,0.012,0.095,0.021l3.322,2.373c0.117,0.083,0.253,0.189,0.394,0.303    l0.523,0.419l0.586-0.324c0.813-0.448,1.697-0.813,2.627-1.084l0.641-0.186l0.074-0.664c0.02-0.182,0.041-0.355,0.064-0.498    l0.672-4.027C29.832,36.09,29.938,36,30,36h4c0.062,0,0.168,0.09,0.178,0.15l0.672,4.027c0.023,0.143,0.045,0.316,0.064,0.498    l0.074,0.663l0.641,0.187c0.93,0.27,1.814,0.635,2.629,1.084l0.587,0.323l0.522-0.419c0.141-0.113,0.275-0.219,0.392-0.302    l3.323-2.374c0.012-0.008,0.046-0.02,0.094-0.02c0.067,0,0.121,0.023,0.139,0.039l2.827,2.828c0.044,0.044,0.056,0.184,0.02,0.233    l-2.373,3.322c-0.083,0.116-0.188,0.253-0.302,0.394l-0.418,0.521l0.322,0.586c0.449,0.813,0.813,1.697,1.084,2.629l0.187,0.641    l0.663,0.074c0.182,0.02,0.355,0.041,0.498,0.064l4.027,0.672C49.91,51.832,50,51.939,50,52v3.999c0,0.062-0.09,0.169-0.15,0.179    l-4.027,0.672c-0.143,0.023-0.316,0.045-0.498,0.064l-0.663,0.074L44.658,57h5.764C50.761,56.785,51,56.401,51,56v-4    c0-0.55-0.443-1.074-0.986-1.164l-4.027-0.672C45.828,50.139,45.637,50.114,45.436,50.092z" fill="#37474F"/><rect fill="#37474F" height="1" width="13.938" x="28" y="11"/></g></g></svg>